:SAMPLES-PER-SECOND 30
:FULLY-SPECIFIED
:DEGREES
443
root  -60.1144 37.8366 -32.2917 30.0883 -0.51181 -4.33334
RightUpLeg  -61.0148 -19.3679 16.826
RightLeg  33.3166 -4.05612 -3.11794
RightFoot  -2.6386 0.131083 -1.95869
RightToes  0.00048216 0.542163 -0.142577
Spine  67.491 -4.44893 7.17307
Spine1  7.62831 2.36014 -6.41553
HEad  -42.5729 -2.79832 -5.51433
LeftShoulder1  8.41634 -27.5396 -20.4592
LeftArm  -64.7074 -76.6569 9.52787
LeftForeArm  5.6492 -12.2741 -3.00138
LeftHand  -0.25398 0.0180481 5.50724
RightShoulder  3.27122 13.4896 12.1897
RightArm  -63.1601 58.5638 -16.1424
RightForeArm  -24.0817 11.2151 5.00601
RightHand  -0.696217 10.1757 -5.69519
LeftUpLeg  -68.1737 26.1552 -25.2361
LeftLeg  33.8511 7.30529 5.60111
LeftFoot  -6.8616 -0.389008 10.9949
LeftToes  1.06244e-005 4.65854e-005 -8.18505e-006
444
root  -60.7425 37.6946 -32.2564 31.0268 0.67984 -3.9101
RightUpLeg  -63.0611 -19.7409 18.3941
RightLeg  35.1062 -4.24755 -3.46197
RightFoot  -3.98502 0.156856 -2.87123
RightToes  0.00048216 0.542163 -0.142577
Spine  68.5318 -4.62001 6.81774
Spine1  8.02891 1.9406 -6.70185
HEad  -43.4506 -2.25486 -5.10705
LeftShoulder1  7.30149 -27.4261 -16.7164
LeftArm  -75.6362 -76.4931 19.6061
LeftForeArm  4.54052 -12.1188 -2.2386
LeftHand  -0.25398 0.0180481 5.50724
RightShoulder  3.07746 13.4353 10.985
RightArm  -66.6606 58.3881 -18.1475
RightForeArm  -26.127 11.2586 4.515
RightHand  -0.707581 9.89303 -5.86936
LeftUpLeg  -70.0237 25.7827 -25.2444
LeftLeg  35.0735 6.14552 4.98394
LeftFoot  -6.20001 -0.414761 10.0306
LeftToes  1.06244e-005 4.65854e-005 -8.18505e-006
445
root  -61.2895 37.5227 -32.1947 32.0323 1.38065 -3.67552
RightUpLeg  -65.0725 -19.9032 20.1257
RightLeg  36.7446 -4.08167 -3.53513
RightFoot  -5.41141 0.175025 -4.07706
RightToes  0.00048216 0.542163 -0.142577
Spine  69.2446 -4.46638 6.43778
Spine1  8.72658 2.00555 -7.09154
HEad  -44.046 -2.29192 -4.86422
LeftShoulder1  6.64486 -27.3492 -14.4718
LeftArm  -84.1492 -76.1806 27.5733
LeftForeArm  3.98219 -12.4207 -1.7503
LeftHand  -0.25398 0.0180481 5.50724
RightShoulder  2.84651 13.0321 9.92931
RightArm  -69.2888 58.168 -19.3539
RightForeArm  -27.5004 11.5329 4.11821
RightHand  -0.626529 9.49979 -5.37542
LeftUpLeg  -71.9844 25.9442 -25.9993
LeftLeg  35.9002 5.22878 4.42362
LeftFoot  -6.27896 -0.414844 10.2193
LeftToes  1.06244e-005 4.65854e-005 -8.18505e-006
446
root  -61.7459 37.3356 -32.1263 33.1717 2.10994 -3.75896
RightUpLeg  -66.9321 -19.6832 21.8734
RightLeg  38.0612 -4.2339 -3.82639
RightFoot  -6.49741 0.165593 -4.93563
RightToes  0.00048216 0.542163 -0.142577
Spine  69.6483 -4.44068 6.34978
Spine1  9.01284 2.12885 -7.48113
HEad  -44.2862 -2.22348 -5.14257
LeftShoulder1  6.17463 -26.8611 -13.1718
LeftArm  -90.5656 -76.0434 33.5231
LeftForeArm  3.62349 -12.5369 -1.41269
LeftHand  -0.25398 0.0180481 5.50724
RightShoulder  2.64729 12.5853 9.08242
RightArm  -71.21 58.4676 -20.218
RightForeArm  -28.1331 11.36 3.82092
RightHand  -0.560863 9.38261 -4.9008
LeftUpLeg  -74.1033 25.9492 -26.4531
LeftLeg  36.7044 4.6273 4.06697
LeftFoot  -6.6501 -0.395224 10.5919
LeftToes  1.06244e-005 4.65854e-005 -8.18505e-006
447
root  -62.139 37.1549 -32.0592 34.1293 3.01926 -3.72978
RightUpLeg  -68.6256 -19.519 23.216
RightLeg  39.4184 -4.63878 -4.36072
RightFoot  -7.42171 0.136098 -5.4362
RightToes  0.00048216 0.542163 -0.142577
Spine  70.1022 -4.54637 6.33142
Spine1  8.72392 1.93636 -7.43231
HEad  -44.4559 -1.91602 -5.58875
LeftShoulder1  5.62042 -26.059 -11.7298
LeftArm  -95.7336 -75.8147 38.3726
LeftForeArm  2.8559 -11.9015 -0.923179
LeftHand  -0.25398 0.0180481 5.50724
RightShoulder  2.46107 12.2464 8.16139
RightArm  -72.6655 59.1123 -21.0553
RightForeArm  -28.935 10.741 3.59762
RightHand  -0.622023 9.64833 -5.29328
LeftUpLeg  -75.9924 25.7146 -26.5916
LeftLeg  37.7773 3.86228 3.58264
LeftFoot  -6.5809 -0.386296 10.2261
LeftToes  1.06244e-005 4.65854e-005 -8.18505e-006
448
root  -62.4827 36.9953 -31.9854 34.7746 3.85208 -3.28699
RightUpLeg  -70.1687 -19.7493 24.0792
RightLeg  40.9159 -4.83758 -4.77009
RightFoot  -8.48654 0.0922866 -6.00254
RightToes  0.00048216 0.542163 -0.142577
Spine  70.731 -4.76007 6.15063
Spine1  8.3672 1.46338 -7.30484
HEad  -44.7562 -1.5304 -5.53959
LeftShoulder1  4.96726 -25.2746 -9.8259
LeftArm  -99.8123 -75.225 42.3801
LeftForeArm  1.77685 -10.8946 -0.29608
LeftHand  -0.25398 0.0180481 5.50724
RightShoulder  2.33211 12.2661 7.22044
RightArm  -73.6797 59.3013 -21.6834
RightForeArm  -30.1808 10.4753 3.45797
RightHand  -0.744872 9.94686 -6.1347
LeftUpLeg  -77.1909 25.3547 -26.8446
LeftLeg  38.6823 3.11331 3.0523
LeftFoot  -6.25265 -0.395237 9.7162
LeftToes  1.06244e-005 4.65854e-005 -8.18505e-006
449
root  -62.7698 36.8639 -31.906 35.2657 4.38509 -2.7997
RightUpLeg  -71.4288 -20.086 24.8134
RightLeg  42.1728 -4.75895 -4.90394
RightFoot  -9.46952 0.0440263 -6.58077
RightToes  0.00048216 0.542163 -0.142577
Spine  71.2062 -4.58757 5.99475
Spine1  8.46084 1.32254 -6.72992
HEad  -44.9972 -1.62426 -5.50055
LeftShoulder1  4.75573 -25.3983 -8.92679
LeftArm  -102.571 -74.2743 45.5969
LeftForeArm  1.06519 -10.3539 0.126407
LeftHand  -0.25398 0.0180481 5.50724
RightShoulder  2.17579 12.238 6.13503
RightArm  -74.0855 58.6827 -21.9333
RightForeArm  -31.3252 10.9918 3.45072
RightHand  -0.788943 9.96053 -6.4601
LeftUpLeg  -77.8644 24.9539 -26.9898
LeftLeg  39.1968 2.85216 2.87515
LeftFoot  -6.18003 -0.401086 9.70233
LeftToes  1.06244e-005 4.65854e-005 -8.18505e-006
450
root  -62.9992 36.7528 -31.833 35.7171 4.6311 -2.7747
RightUpLeg  -72.2904 -20.0462 25.6454
RightLeg  43.0146 -4.64692 -4.93657
RightFoot  -10.0731 0.00865596 -6.89418
RightToes  0.00048216 0.542163 -0.142577
Spine  71.5898 -4.35195 5.9373
Spine1  8.52757 1.44627 -6.56122
HEad  -45.0512 -1.55223 -5.57507
LeftShoulder1  4.68108 -25.6444 -8.48418
LeftArm  -103.824 -73.1626 47.7911
LeftForeArm  0.401109 -10.2689 0.251116
LeftHand  -0.25398 0.0180481 5.50724
RightShoulder  2.04458 12.1738 5.25563
RightArm  -74.5385 58.2258 -22.0271
RightForeArm  -32.1606 11.6699 3.47749
RightHand  -0.794756 9.82511 -6.55501
LeftUpLeg  -78.6116 24.7046 -26.6368
LeftLeg  39.7951 2.93768 3.0064
LeftFoot  -6.32738 -0.38798 9.70793
LeftToes  1.06244e-005 4.65854e-005 -8.18505e-006
451
root  -63.1834 36.6419 -31.7695 36.1222 4.72838 -3.05316
RightUpLeg  -72.9062 -19.635 26.3666
RightLeg  43.7211 -4.64688 -5.05692
RightFoot  -10.4915 -0.0179467 -7.11643
RightToes  0.00048216 0.542163 -0.142577
Spine  71.921 -4.16484 5.90272
Spine1  8.35145 1.62237 -6.73899
HEad  -45.0654 -1.27494 -5.6525
LeftShoulder1  4.51004 -25.6416 -7.83418
LeftArm  -104.183 -72.0411 49.2969
LeftForeArm  -0.535328 -10.0913 0.289555
LeftHand  -0.25398 0.0180481 5.50724
RightShoulder  1.93354 11.8955 4.70934
RightArm  -75.439 58.539 -22.5551
RightForeArm  -33.3633 11.8864 3.50388
RightHand  -0.911427 9.88844 -7.40596
LeftUpLeg  -79.6201 24.6999 -26.1456
LeftLeg  40.7431 2.91189 3.07465
LeftFoot  -6.40581 -0.364206 9.32646
LeftToes  1.06244e-005 4.65854e-005 -8.18505e-006
452
root  -63.3365 36.5255 -31.7075 36.5032 4.79276 -3.07857
RightUpLeg  -73.538 -19.2197 26.6826
RightLeg  44.5122 -4.79105 -5.34513
RightFoot  -11.0476 -0.0553825 -7.48363
RightToes  0.00048216 0.542163 -0.142577
Spine  72.1565 -4.05237 5.80353
Spine1  8.17039 1.68494 -6.91513
HEad  -45.1722 -1.15694 -5.48914
LeftShoulder1  4.22968 -25.522 -6.83275
LeftArm  -104.498 -71.0774 50.4276
LeftForeArm  -1.4303 -9.66529 0.463237
LeftHand  -0.25398 0.0180481 5.50724
RightShoulder  1.82895 11.4466 4.34647
RightArm  -76.5766 59.1447 -23.4379
RightForeArm  -34.6443 11.7548 3.48831
RightHand  -1.08974 10.1688 -8.6138
LeftUpLeg  -80.5658 24.7434 -26.1718
LeftLeg  41.6168 2.71355 2.97472
LeftFoot  -6.41147 -0.352292 9.06259
LeftToes  1.06244e-005 4.65854e-005 -8.18505e-006
453
root  -63.467 36.4207 -31.641 36.8814 4.85387 -2.76849
RightUpLeg  -74.1761 -18.9388 26.6251
RightLeg  45.28 -5.07328 -5.78781
RightFoot  -11.7038 -0.103222 -7.72644
RightToes  0.00048216 0.542163 -0.142577
Spine  72.3101 -4.00313 5.70017
Spine1  8.12508 1.67571 -6.99994
HEad  -45.293 -1.31775 -5.11861
LeftShoulder1  3.93733 -25.3559 -5.79855
LeftArm  -105.343 -70.4847 51.3785
LeftForeArm  -1.8111 -9.32543 0.760831
LeftHand  -0.25398 0.0180481 5.50724
RightShoulder  1.72633 11.0509 3.92661
RightArm  -77.5943 59.3825 -24.1
RightForeArm  -34.8326 11.6249 3.35871
RightHand  -1.11674 10.3038 -8.74099
LeftUpLeg  -81.276 24.7238 -26.7163
LeftLeg  42.1188 2.50265 2.81955
LeftFoot  -6.45152 -0.358866 9.29537
LeftToes  1.06244e-005 4.65854e-005 -8.18505e-006
454
root  -63.5774 36.3427 -31.5714 37.1943 4.87228 -2.50623
RightUpLeg  -74.613 -18.6414 26.4393
RightLeg  45.8884 -5.38037 -6.24331
RightFoot  -12.2456 -0.14264 -7.60739
RightToes  0.00048216 0.542163 -0.142577
Spine  72.4974 -3.96426 5.68239
Spine1  8.04944 1.72127 -7.08754
HEad  -45.3288 -1.53551 -4.81604
LeftShoulder1  3.67344 -24.971 -4.97337
LeftArm  -106.779 -70.332 52.3487
LeftForeArm  -1.79999 -9.27573 1.04062
LeftHand  -0.25398 0.0180481 5.50724
RightShoulder  1.63444 10.8471 3.39369
RightArm  -78.3761 59.2301 -24.4417
RightForeArm  -34.1762 11.5458 3.14059
RightHand  -0.98523 10.1482 -7.84695
LeftUpLeg  -81.9045 24.8285 -27.3252
LeftLeg  42.4874 2.24298 2.59851
LeftFoot  -6.48624 -0.370518 9.63878
LeftToes  1.06244e-005 4.65854e-005 -8.18505e-006
455
root  -63.6631 36.2868 -31.5046 37.4188 4.83823 -2.41901
RightUpLeg  -74.864 -18.2947 26.2674
RightLeg  46.3748 -5.55938 -6.54605
RightFoot  -12.6105 -0.168407 -7.50576
RightToes  0.00048216 0.542163 -0.142577
Spine  72.7251 -3.95775 5.73861
Spine1  7.87381 1.81378 -7.26096
HEad  -45.3003 -1.61264 -4.70709
LeftShoulder1  3.42052 -24.3962 -4.26254
LeftArm  -108.233 -70.3805 53.2158
LeftForeArm  -1.86161 -9.35668 1.24256
LeftHand  -0.25398 0.0180481 5.50724
RightShoulder  1.57017 10.779 2.94529
RightArm  -79.0503 59.0319 -24.9084
RightForeArm  -34.2486 11.454 2.97876
RightHand  -0.935602 9.95733 -7.56309
LeftUpLeg  -82.5074 25.0867 -27.8128
LeftLeg  42.8976 1.91238 2.30426
LeftFoot  -6.48793 -0.37462 9.73867
LeftToes  1.06244e-005 4.65854e-005 -8.18505e-006
